<svg width="347" height="76" viewBox="0 0 347 76" fill="none" xmlns="http://www.w3.org/2000/svg">
<path d="M35.5867 44.4003H43.9447C54.8087 44.4003 65.6747 44.4003 76.5427 44.4003C80.0587 44.4003 80.8927 45.1563 80.7427 48.6003C80.4367 57.1503 78.3427 64.9863 71.3767 70.7283C67.3821 74.1093 62.3058 75.9427 57.0727 75.8943C45.7087 75.8943 34.3447 75.9423 22.9807 75.8943C5.77266 75.7803 -5.00334 58.8843 2.34066 43.2003C7.77666 31.5483 13.6507 20.1003 19.3207 8.55625C19.9122 7.40369 20.441 6.21996 20.9047 5.01025C21.9307 2.15425 24.0967 0.456254 26.9047 0.294254C32.7607 -0.0417458 38.6467 -0.0357458 44.5207 0.0482542C45.5287 0.0482542 46.6927 0.984254 47.4787 1.78225C48.5767 2.90425 49.3687 4.35625 50.3767 5.58025C52.3387 7.94425 52.4047 10.3803 51.0427 13.0683C46.2907 22.5063 41.6167 31.9803 36.9187 41.4423C36.5407 42.2223 36.2047 43.0203 35.5867 44.4003ZM70.9147 53.6343H67.9147C58.6447 53.6343 49.3747 53.7963 40.1047 53.5863C35.2267 53.4783 30.6127 53.8983 26.3047 56.4123C24.4147 57.5223 22.4107 57.7203 20.9827 55.7043C19.4887 53.5983 20.1547 51.6003 21.6907 49.7043C22.8396 48.3499 23.845 46.88 24.6907 45.3183C29.5987 35.6223 34.4287 25.8843 39.2647 16.1523C40.3507 13.9743 41.3587 11.7543 42.5527 9.21625C38.3527 9.21625 34.6927 9.12025 31.0147 9.28825C30.5226 9.3462 30.0493 9.51169 29.6283 9.77299C29.2073 10.0343 28.849 10.385 28.5787 10.8003C22.5127 22.9083 16.3387 34.9863 10.6507 47.2863C6.15666 57.0003 12.4447 66.6003 23.0767 66.7083C34.3407 66.8163 45.6047 66.8163 56.8687 66.7083C64.3687 66.6723 69.9607 61.4463 70.9147 53.6043V53.6343Z" fill="#FF7700"/>
<path d="M145.76 17.8991C145.76 14.5991 148.311 12.0991 151.81 12.0991C155.54 12.2991 157.311 14.6891 157.311 18.0991C157.311 21.5091 155.311 23.9491 151.47 23.9491C148.311 23.9491 145.76 21.5991 145.76 17.8991Z" fill="#FF7700"/>
<path d="M295.85 56.7591C293.26 59.5991 289.02 62.6691 285.27 63.1691C278.76 64.0291 272.02 61.9991 265.27 63.0691C264.62 63.1691 262.931 61.2391 262.921 60.2491C262.771 45.6491 262.82 31.0591 262.82 16.0691H272.96V29.2091C281.09 25.6291 288.231 25.3191 294.341 31.7391C297.062 34.5991 300.098 39.1161 300.26 45.1391C300.352 48.5991 298.26 53.5091 295.85 56.7591ZM281.171 53.5091C286.171 53.5091 289.73 50.0091 289.71 45.1691C289.726 43.0013 288.901 40.9117 287.41 39.3383C285.919 37.7649 283.876 36.8298 281.71 36.7291C280.598 36.6943 279.489 36.8881 278.454 37.2987C277.419 37.7093 276.48 38.3279 275.693 39.1161C274.907 39.9044 274.29 40.8456 273.882 41.8816C273.474 42.9176 273.283 44.0263 273.32 45.1391C273.32 49.8791 276.761 53.5191 281.171 53.5091Z" fill="#FF7700"/>
<path d="M243.76 60.8491C239.29 64.4891 234.22 64.3291 229.16 62.7691C224.1 61.2091 221.36 57.0891 221.52 51.8291C221.67 46.9891 225.03 43.0091 230.32 41.7191C232.577 41.1809 234.882 40.8661 237.2 40.7791C239.47 40.6791 241.76 40.9991 244.32 41.1491V36.2191H234.32C226.76 36.2191 226.76 36.2191 227.02 27.7591C233.39 27.7591 239.85 27.1891 246.15 27.9491C248.361 28.2169 250.4 29.2758 251.891 30.9301C253.382 32.5845 254.223 34.7225 254.26 36.9491C254.68 45.3691 254.37 53.8191 254.37 63.8091L244.37 60.9291C244.281 60.8715 244.18 60.8345 244.074 60.8207C243.969 60.8068 243.862 60.8166 243.76 60.8491ZM244.83 47.4391C240.99 47.8091 237.67 47.8391 234.55 48.6191C233.55 48.8491 232.46 51.3591 232.72 52.5291C233.001 53.2425 233.452 53.8762 234.034 54.3748C234.617 54.8734 235.312 55.2216 236.06 55.3891C240.6 55.7391 243.44 53.3891 244.83 47.4391Z" fill="black"/>
<path d="M165.689 35.9191V28.1791C167.139 27.2491 168.939 26.7291 169.579 25.5691C174.579 16.3191 177.519 14.7091 187.899 16.1391V24.2191L179.899 24.9491L179.759 26.2791H193.569V16.0991H204.179V26.9391L214.959 27.4891V35.9391L165.689 35.9191Z" fill="#FF7700"/>
<path d="M325.53 15.9391H335.21V27.2291H345.96V35.9591L335.67 36.5391V54.1491L346.08 54.6791V63.6091C341.39 63.0491 336.93 62.9091 332.69 61.8791C330.705 61.401 328.936 60.2716 327.668 58.6711C326.399 57.0707 325.703 55.0914 325.69 53.0491C325.3 40.7791 325.53 28.4991 325.53 15.9391Z" fill="#FF7700"/>
<path d="M112.829 15.8191H122.549V54.2591H141.359V63.3491C134.579 63.0091 127.649 63.1291 120.879 62.1691C118.675 61.8884 116.65 60.8111 115.186 59.1403C113.721 57.4696 112.919 55.3208 112.929 53.0991C112.619 40.8391 112.829 28.5591 112.829 15.8191Z" fill="#FF7700"/>
<path d="M147.289 27.4491H156.989V62.9191H147.289V27.4491Z" fill="#FF7700"/>
<path d="M316.88 62.9491H307.48V27.6791H316.88V62.9491Z" fill="#FF7700"/>
<path d="M204.109 54.3291H215.249C215.249 56.4091 215.169 58.0191 215.249 59.6191C215.409 62.0891 214.539 63.4091 211.869 63.1991C209.399 63.0091 206.869 63.1391 204.439 62.7491C197.939 61.7491 194.739 58.5491 193.969 52.0191C193.589 48.7791 193.909 45.4591 193.909 41.8491H204.109V54.3291Z" fill="#FF7700"/>
<path d="M179.27 62.7791H170V40.7791H179.27V62.7791Z" fill="#FF7700"/>
<path d="M306.209 18.3991C306.209 15.0991 308.76 12.5991 312.259 12.5991C315.989 12.7991 317.76 15.1891 317.76 18.5991C317.76 22.0091 315.76 24.4491 311.919 24.4491C308.76 24.4491 306.209 22.0991 306.209 18.3991Z" fill="#FF7700"/>
<path d="M243.76 60.8491C243.859 60.7998 243.969 60.7741 244.08 60.7741C244.191 60.7741 244.3 60.7998 244.4 60.8491L244.08 60.8991L243.76 60.8491Z" fill="#FF7700"/>
</svg>
