<svg width="83" height="78" viewBox="0 0 83 78" fill="none" xmlns="http://www.w3.org/2000/svg">
<path d="M36.2984 45.2883H44.8236C55.9048 45.2883 66.9882 45.2883 78.0735 45.2883C81.6598 45.2883 82.5105 46.0594 82.3575 49.5723C82.0454 58.2933 79.9095 66.286 72.8042 72.1428C68.7298 75.5915 63.5519 77.4615 58.2141 77.4121C46.6228 77.4121 35.0316 77.4611 23.4403 77.4121C5.88811 77.2959 -5.1034 60.0619 2.38748 44.0643C7.9322 32.1792 13.9237 20.5023 19.7071 8.72738C20.3105 7.55176 20.8498 6.34436 21.3228 5.11046C22.3693 2.19734 24.5786 0.465379 27.4428 0.300139C33.4159 -0.0425807 39.4196 -0.0364607 45.4111 0.0492193C46.4392 0.0492193 47.6265 1.00394 48.4282 1.8179C49.5482 2.96234 50.356 4.44338 51.3842 5.69186C53.3854 8.10314 53.4528 10.5879 52.0635 13.3296C47.2165 22.9564 42.449 32.6199 37.657 42.2711C37.2715 43.0667 36.9288 43.8807 36.2984 45.2883ZM72.333 54.7069H69.273C59.8176 54.7069 50.3622 54.8722 40.9068 54.658C35.9312 54.5478 31.2249 54.9762 26.8308 57.5405C24.903 58.6727 22.8589 58.8747 21.4023 56.8183C19.8784 54.6702 20.5578 52.6323 22.1245 50.6983C23.2964 49.3169 24.3218 47.8176 25.1845 46.2246C30.1906 36.3347 35.1172 26.4019 40.05 16.4753C41.1577 14.2537 42.1858 11.9893 43.4037 9.40058C39.1197 9.40058 35.3865 9.30266 31.635 9.47402C31.133 9.53312 30.6503 9.70192 30.2209 9.96845C29.7915 10.235 29.4259 10.5927 29.1502 11.0163C22.9629 23.3664 16.6654 35.686 10.8637 48.232C6.2798 58.1403 12.6936 67.9323 23.5382 68.0424C35.0275 68.1526 46.5168 68.1526 58.006 68.0424C65.656 68.0057 71.3599 62.6752 72.333 54.6763V54.7069Z" fill="#FF7700"/>
</svg>
